<svg width="233" height="227" viewBox="0 0 233 227" fill="none" xmlns="http://www.w3.org/2000/svg">
<g clip-path="url(#clip0_3_2)">
<path d="M233 113.5C233 176.114 180.769 227 116.5 227C52.2308 227 0 176.114 0 113.5C0 50.8858 52.2308 0 116.5 0C180.769 0 233 50.8858 233 113.5ZM11.7471 113.5C11.7343 126.906 14.4351 140.182 19.6949 152.57C24.9547 164.957 32.6703 176.213 42.4 185.692C52.1298 195.171 76.3977 207.812 76.3977 207.812C89.1127 212.937 102.74 215.568 116.5 215.555C130.26 215.568 143.887 212.937 156.602 207.812C169.317 202.688 180.87 195.171 190.6 185.692C200.33 176.213 208.045 164.957 213.305 152.57C218.565 140.182 221.266 126.906 221.253 113.5C221.266 100.094 218.565 86.8179 213.305 74.4304C208.045 62.0428 200.33 50.7874 190.6 41.3082C180.87 31.829 169.317 24.3121 156.602 19.1877C143.887 14.0634 130.26 11.4321 116.5 11.4446C102.74 11.4321 89.1127 14.0634 76.3977 19.1877C63.6827 24.3121 52.1298 31.829 42.4 41.3082C32.6703 50.7874 24.9547 62.0428 19.6949 74.4304C14.4351 86.8179 11.7343 100.094 11.7471 113.5ZM117.714 55.9366L138.703 67.7406C139.073 67.9485 139.379 68.2477 139.593 68.6081C139.806 68.9685 139.917 69.3772 139.916 69.793V80.2256L163.925 93.7321C164.295 93.94 164.602 94.2392 164.815 94.5996C165.028 94.96 165.14 95.3687 165.139 95.7845V118.059L174.41 123.27C174.78 123.478 175.087 123.778 175.3 124.138C175.513 124.498 175.625 124.907 175.624 125.323V148.931C175.625 149.347 175.513 149.755 175.3 150.116C175.087 150.476 174.78 150.775 174.41 150.983L153.421 162.787C153.052 162.995 152.633 163.104 152.207 163.104C151.781 163.104 151.363 162.995 150.994 162.787L141.713 157.566L117.714 171.063C117.345 171.271 116.926 171.38 116.5 171.38C116.074 171.38 115.655 171.271 115.286 171.063L91.2875 157.566L82.0063 162.787C81.6373 162.995 81.2188 163.104 80.7927 163.104C80.3667 163.104 79.9482 162.995 79.5792 162.787L58.5898 150.983C58.2201 150.775 57.9133 150.476 57.7002 150.116C57.4872 149.755 57.3754 149.347 57.3762 148.931V125.323C57.3754 124.907 57.4872 124.498 57.7002 124.138C57.9133 123.778 58.2201 123.478 58.5898 123.27L67.8612 118.059V95.7845C67.8604 95.3687 67.9722 94.96 68.1852 94.5996C68.3983 94.2392 68.7051 93.94 69.0748 93.7321L93.0835 80.2256V69.8025C93.0827 69.3866 93.1944 68.9779 93.4075 68.6176C93.6205 68.2572 93.9274 67.958 94.297 67.75L115.286 55.946C115.655 55.7385 116.074 55.6292 116.5 55.6292C116.926 55.6292 117.345 55.729 117.714 55.9366ZM130.024 150.983C129.654 150.775 129.347 150.476 129.134 150.116C128.921 149.755 128.809 149.347 128.81 148.931V125.323C128.809 124.907 128.921 124.498 129.134 124.138C129.347 123.778 129.654 123.478 130.024 123.27L150.994 111.466C151.363 111.259 151.781 111.15 152.207 111.15C152.633 111.15 153.052 111.259 153.421 111.466L160.285 115.325V97.1465L139.916 85.702V93.401C139.917 93.8169 139.806 94.2256 139.593 94.586C139.379 94.9463 139.073 95.2456 138.703 95.4535L117.714 107.257C117.345 107.465 116.926 107.574 116.5 107.574C116.074 107.574 115.655 107.465 115.286 107.257L94.297 95.4535C93.9274 95.2456 93.6205 94.9463 93.4075 94.586C93.1944 94.2256 93.0827 93.8169 93.0835 93.401V85.6925L72.7154 97.1465V115.325L79.5792 111.466C79.9482 111.259 80.3667 111.15 80.7927 111.15C81.2188 111.15 81.6373 111.259 82.0063 111.466L102.976 123.27C103.346 123.478 103.653 123.778 103.866 124.138C104.079 124.498 104.191 124.907 104.19 125.323V148.931C104.191 149.347 104.079 149.755 103.866 150.116C103.653 150.476 103.346 150.775 102.976 150.983L96.1319 154.842L116.5 166.296L136.868 154.842L130.024 150.983ZM97.9377 92.0296L114.073 101.11V82.9117L97.9377 73.879V92.0296ZM135.062 92.0296V73.879L118.927 82.9117V101.11L135.062 92.0296ZM116.5 60.7036L100.384 69.7836L116.5 78.8068L132.616 69.7836L116.5 60.7036ZM62.2304 147.569L78.3462 156.63V138.461L62.2304 129.418V147.569ZM99.3357 147.569V129.409L83.2004 138.461V156.649L99.3357 147.569ZM80.7927 116.252L64.6575 125.332L80.783 134.365L96.8989 125.323L80.7927 116.252ZM133.664 147.559L149.78 156.639V138.461L133.664 129.418V147.559ZM170.77 147.559V129.418L154.634 138.461V156.639L170.77 147.559ZM152.207 116.252L136.091 125.332L152.207 134.365L168.323 125.323L152.207 116.252Z" fill="white"/>
</g>
<defs>
<clipPath id="clip0_3_2">
<rect width="233" height="227" fill="white"/>
</clipPath>
</defs>
</svg>
